<?xml version="1.0" standalone="no"?>
<!DOCTYPE svg PUBLIC "-//W3C//DTD SVG 20010904//EN"
 "http://www.w3.org/TR/2001/REC-SVG-20010904/DTD/svg10.dtd">
<svg version="1.0" xmlns="http://www.w3.org/2000/svg"
 width="260.000000pt" height="260.000000pt" viewBox="0 0 260.000000 260.000000"
 preserveAspectRatio="xMidYMid meet">
<metadata>
Created by potrace 1.11, written by Peter Selinger 2001-2013
</metadata>
<g transform="translate(0.000000,260.000000) scale(0.100000,-0.100000)"
fill="#000000" stroke="none">
<path d="M0 1300 l0 -1300 1300 0 1300 0 0 1300 0 1300 -1300 0 -1300 0 0
-1300z m1372 859 c186 -20 319 -78 411 -180 68 -75 92 -141 92 -254 -1 -68 -5
-90 -32 -147 -36 -76 -90 -134 -164 -177 l-52 -29 66 -32 c271 -132 325 -493
108 -711 -127 -127 -298 -181 -621 -195 -133 -6 -470 9 -505 23 -13 4 -15 117
-15 838 0 785 1 834 18 839 22 7 200 25 277 29 151 8 323 6 417 -4z"/>
<path d="M1088 1863 l-28 -4 0 -186 0 -185 118 4 c93 3 127 9 167 27 87 39
125 88 125 165 0 122 -78 177 -255 182 -55 1 -112 0 -127 -3z"/>
<path d="M1060 966 l0 -226 112 0 c136 0 211 19 266 66 51 43 72 89 72 157 0
98 -35 151 -130 195 -48 22 -72 26 -187 30 l-133 4 0 -226z"/>
</g>
</svg>
